
        <svg xmlns="http://www.w3.org/2000/svg" xmlns:xlink="http://www.w3.org/1999/xlink" version="1.1" width="3161.970642820989" 
        height="862.9998312805805" viewBox="0 -80.98532141049435 3161.970642820989 862.9998312805805">
			
			<g transform="scale(8.098532141049436) translate(10, 10)">
				<defs id="SvgjsDefs3833"></defs><g id="SvgjsG3834" featureKey="symbolFeature-0" transform="matrix(0.9822127819061279,0,0,0.9822127819061279,-0.8298788550103744,-20.82987791829929)" fill="#3c77c2"><path xmlns="http://www.w3.org/2000/svg" d="M50,11.026c-21.525,0-38.974,17.449-38.974,38.974c0,12.283,5.688,23.232,14.567,30.376l-14.567,8.599H50  c21.525,0,38.975-17.449,38.975-38.975C88.975,28.475,71.523,11.026,50,11.026z M49.999,85.507H23.961l8.242-4.786  C21.617,74.574,14.493,63.123,14.493,50c0-19.61,15.896-35.506,35.506-35.506c19.61,0,35.507,15.896,35.507,35.506  C85.506,69.609,69.609,85.507,49.999,85.507z M38.165,60.521c0.581,0.581,0.581,1.521,0,2.103c-0.581,0.581-1.521,0.581-2.102,0  L24.516,51.076c-0.581-0.581-0.581-1.521,0-2.102l11.547-11.547c0.581-0.581,1.522-0.581,2.102,0c0.581,0.58,0.581,1.521,0,2.102  L27.669,50.025L38.165,60.521 M61.835,39.529c-0.581-0.581-0.581-1.521,0-2.102s1.521-0.581,2.103,0l11.547,11.547  c0.581,0.581,0.581,1.522,0,2.102L63.938,62.623c-0.581,0.581-1.522,0.581-2.103,0c-0.581-0.58-0.581-1.521,0-2.102l10.496-10.496  L61.835,39.529 M44.498,63.563c-0.206,0-0.415-0.044-0.615-0.134c-0.747-0.342-1.077-1.223-0.737-1.97l11.004-24.153  c0.34-0.747,1.221-1.077,1.968-0.736c0.748,0.34,1.077,1.221,0.737,1.968L45.851,62.692C45.602,63.24,45.062,63.563,44.498,63.563"></path></g><g id="SvgjsG3835" featureKey="fiAKjI-0" transform="matrix(3.0140814781188965,0,0,3.0140814781188965,94.46817252059998,-10.14476767450735)" fill="#3c77c2"><path d="M0.84 20 l0 -13.7 l5.64 0 c3.06 0 4.42 1.7 4.42 3.72 c0 1.22 -0.58 2.2 -1.72 2.78 c1.72 0.52 2.64 1.68 2.64 3.28 c0 2.24 -1.58 3.92 -4.82 3.92 l-6.16 0 z M6.26 8.96 l-2.32 0 l0 2.8 l2.32 0 c1.06 0 1.6 -0.6 1.6 -1.42 c0 -0.8 -0.54 -1.38 -1.6 -1.38 z M6.82 14.379999999999999 l-2.88 0 l0 2.96 l2.9 0 c1.2 0 1.88 -0.6 1.88 -1.44 c0 -0.9 -0.68 -1.52 -1.9 -1.52 z M13.08 20 l0 -13.7 l3.1 0 l0 10.86 l6.36 0 l0 2.84 l-9.46 0 z M29.82 20.24 c-3.84 0 -5.94 -2.28 -5.94 -5.68 l0 -8.26 l3.1 0 l0 7.84 c0 2.08 1.02 3.22 2.82 3.22 c1.78 0 2.78 -1.14 2.78 -3.22 l0 -7.84 l3.1 0 l0 8.26 c0 3.4 -2.08 5.68 -5.86 5.68 z M44.199999999999996 8.9 c-2.32 0 -4.08 1.86 -4.08 4.22 c0 2.42 1.76 4.26 4.18 4.26 c1.68 0 2.96 -0.88 3.74 -2.22 l2.42 1.68 c-1.32 2.16 -3.34 3.44 -6.12 3.44 c-4.22 0 -7.38 -3.14 -7.38 -7.16 c0 -3.98 3.14 -7.1 7.3 -7.1 c2.7 0 4.84 1.12 6.14 3.42 l-2.46 1.7 c-0.8 -1.32 -2 -2.24 -3.74 -2.24 z M57.04 9.14 l-2.28 0 l0 3.66 l2.18 0 c1.34 0 2.16 -0.76 2.16 -1.82 s-0.68 -1.84 -2.06 -1.84 z M54.76 15.34 l0 4.66 l-3.1 0 l0 -13.7 l5.84 0 c2.92 0 4.72 1.88 4.72 4.56 c0 2.14 -1.42 3.92 -3.74 4.38 l4.36 4.76 l-4.04 0 z M67.06 20 l-3.1 0 l0 -13.7 l3.1 0 l0 13.7 z M74.34 16.18 l-2.52 0 l0 3.82 l-3.1 0 l0 -13.7 l5.9 0 c3.12 0 4.88 2.18 4.88 4.84 c0 2.8 -1.94 5.04 -5.16 5.04 z M74.16000000000001 9.14 l-2.34 0 l0 4.2 l2.44 0 c1.32 0 2.12 -0.88 2.12 -2.12 s-0.78 -2.08 -2.22 -2.08 z M87.48000000000002 20 l-3.1 0 l0 -10.86 l-4.08 0 l0 -2.84 l11.26 0 l0 2.84 l-4.08 0 l0 10.86 z"></path></g><g id="SvgjsG3836" featureKey="sloganFeature-0" transform="matrix(0.5909410119056702,0,0,0.5909410119056702,147.45633425332704,57.572541981307346)" fill="#3c77c2"><path d="M0.92 18.54 c0.88 0.82 2.7 1.66 4.52 1.66 c2.8 0 4.58 -1.44 4.58 -3.7 c0 -1.84 -0.88 -2.92 -3.92 -4.64 c-2.32 -1.34 -2.88 -1.78 -2.88 -2.66 c0 -0.94 0.88 -1.68 2.36 -1.68 c0.86 0 2 0.38 2.66 0.8 l0.96 -1.44 c-0.94 -0.62 -2.42 -1.08 -3.6 -1.08 c-2.58 0 -4.3 1.48 -4.3 3.42 c0 1.72 0.86 2.58 3.5 4.02 c2.34 1.28 3.3 2.22 3.3 3.24 c0 1.2 -1.04 1.92 -2.66 1.92 c-1.4 0 -2.8 -0.66 -3.5 -1.3 z M28.547 5.800000000000001 l0.22 0 l0 14.2 l-1.78 0 l0 -9.42 l-4.96 6.48 l-0.12 0 l-4.96 -6.46 l0 9.4 l-1.78 0 l0 -14.2 l0.2 0 l6.6 8.4 z M43.894 20 l-1.22 -2.84 l-6.24 0 l-1.22 2.84 l-1.92 0 l6.16 -14.2 l0.2 0 l6.16 14.2 l-1.92 0 z M37.153999999999996 15.48 l4.8 0 l-2.4 -5.54 z M60.541000000000004 11.06 c0 2.26 -1.06 4.2 -3.24 4.84 l3.02 4.1 l-2.16 0 l-2.86 -3.88 l-3.14 0 l0 3.88 l-1.8 0 l0 -14 l5.28 0 c3.3 0 4.9 2.28 4.9 5.06 z M52.161 7.68 l0 6.74 l3.4 0 c2.26 0 3.18 -1.66 3.18 -3.36 s-0.92 -3.38 -3.18 -3.38 l-3.4 0 z M74.608 7.720000000000001 l-4.08 0 l0 12.28 l-1.8 0 l0 -12.28 l-4.1 0 l0.12 -1.72 l9.74 0 z M102.102 5.800000000000001 l0.22 0 l0 14.2 l-1.78 0 l0 -9.42 l-4.96 6.48 l-0.12 0 l-4.96 -6.46 l0 9.4 l-1.78 0 l0 -14.2 l0.2 0 l6.6 8.4 z M117.44900000000001 20 l-1.22 -2.84 l-6.24 0 l-1.22 2.84 l-1.92 0 l6.16 -14.2 l0.2 0 l6.16 14.2 l-1.92 0 z M110.709 15.48 l4.8 0 l-2.4 -5.54 z M128.716 6 c4.64 0 7.2 2.84 7.2 7 s-2.56 7 -7.2 7 l-4.8 0 l0 -14 l4.8 0 z M128.816 18.28 c3.4 0 5.3 -2.12 5.3 -5.28 c0 -3.18 -1.9 -5.28 -5.3 -5.28 l-3.1 0 l0 10.56 l3.1 0 z M149.703 18.28 l0.12 1.72 l-8.52 0 l0 -14 l8.12 0 l0.14 1.72 l-6.46 0 l0 3.42 l4.38 0 l0 1.72 l-4.38 0 l0 5.42 l6.6 0 z M163.577 18.54 c0.88 0.82 2.7 1.66 4.52 1.66 c2.8 0 4.58 -1.44 4.58 -3.7 c0 -1.84 -0.88 -2.92 -3.92 -4.64 c-2.32 -1.34 -2.88 -1.78 -2.88 -2.66 c0 -0.94 0.88 -1.68 2.36 -1.68 c0.86 0 2 0.38 2.66 0.8 l0.96 -1.44 c-0.94 -0.62 -2.42 -1.08 -3.6 -1.08 c-2.58 0 -4.3 1.48 -4.3 3.42 c0 1.72 0.86 2.58 3.5 4.02 c2.34 1.28 3.3 2.22 3.3 3.24 c0 1.2 -1.04 1.92 -2.66 1.92 c-1.4 0 -2.8 -0.66 -3.5 -1.3 z M177.824 20 l0 -14 l1.8 0 l0 14 l-1.8 0 z M198.93100000000004 5.800000000000001 l0.22 0 l0 14.2 l-1.78 0 l0 -9.42 l-4.96 6.48 l-0.12 0 l-4.96 -6.46 l0 9.4 l-1.78 0 l0 -14.2 l0.2 0 l6.6 8.4 z M210.37800000000004 6 c3.28 0 4.82 2.48 4.82 5.1 s-1.54 5.1 -4.82 5.1 l-3.5 0 l0 3.8 l-1.8 0 l0 -14 l5.3 0 z M210.29800000000003 14.48 c1.84 0 3.06 -1.42 3.06 -3.38 s-1.22 -3.38 -3.06 -3.38 l-3.42 0 l0 6.76 l3.42 0 z M222.36500000000004 18.28 l5.92 0 l-0.12 1.72 l-7.6 0 l0 -14 l1.8 0 l0 12.28 z M241.41200000000003 18.28 l0.12 1.72 l-8.52 0 l0 -14 l8.12 0 l0.14 1.72 l-6.46 0 l0 3.42 l4.38 0 l0 1.72 l-4.38 0 l0 5.42 l6.6 0 z"></path></g>
			</g>
		</svg>
	